<?xml version="1.0" encoding="UTF-8" standalone="no"?>
<svg
   id="Layer_1"
   data-name="Layer 1"
   viewBox="0 0 308.49893 430.71158"
   version="1.1"
   width="308.49893"
   height="430.71158"
   xmlns="http://www.w3.org/2000/svg"
   xmlns:svg="http://www.w3.org/2000/svg">
  <defs
     id="defs1">
    <style
       id="style1">
      .cls-1 {
        fill: #fff;
      }

      .cls-2 {
        fill: #831618;
      }

      .cls-3 {
        fill: #0f592d;
      }
    </style>
  </defs>
  <g
     id="g3"
     transform="translate(-88.959964,-30.639888)"
     style="fill:none">
    <g
       id="g2"
       style="fill:none">
      <path
         d="m 397.45,297.39 c 0,-77.26 0.02,-154.52 0,-231.78 0,-10.23 -3.92,-18.78 -11.41,-25.72 -7.13,-6.62 -15.7,-9.27 -25.28,-9.25 -19.92,0.03 -39.84,0.03 -59.76,0.03 -58.61,0 -117.22,-0.02 -175.83,-0.03 -11.25,0 -20.56,4.3 -27.93,12.8 -6.22,7.16 -8.29,15.61 -8.28,24.93 0.08,59.07 0.04,118.14 0.04,177.2 0,49.28 -0.01,98.56 0,147.85 0,11.62 -0.06,23.25 0.17,34.87 0.17,8.15 3.5,15.14 8.97,21.14 8.01,8.79 18.14,11.81 29.79,11.79 72.42,-0.12 144.85,-0.03 217.27,-0.1 7.93,-0.01 15.93,0.83 23.79,-0.63 16.91,-3.15 28.43,-17.49 28.44,-35.31 0.03,-42.6 -0.01,-85.2 -0.01,-127.81 z m -2.41,-51.45 h -0.05 c 0,58.95 0,117.9 0,176.85 0,4.97 -0.29,9.89 -2.05,14.62 -4.77,12.86 -17.1,21.24 -31.42,21.24 -76.68,0 -153.37,-0.02 -230.04,-0.03 -2.54,0 -5.07,0.06 -7.6,-0.03 -18.05,-0.64 -31.62,-14.17 -32.34,-32.2 -0.03,-0.92 -0.02,-1.84 -0.02,-2.76 0,-118.48 0.02,-236.95 -0.03,-355.43 0,-9.66 2.6,-18.14 9.55,-25.07 6.91,-6.88 15.25,-9.94 24.95,-9.93 56.53,0.06 113.07,0.03 169.6,0.03 22.11,0 44.22,-0.09 66.32,0.03 16.42,0.09 29.42,10.83 32.51,26.54 0.83,4.21 0.62,8.48 0.62,12.74 0,57.8 0,115.6 0,173.4 z"
         id="path1"
         style="fill:none" />
      <path
         class="cls-1"
         d="m 395.04,245.94 h -0.05 c 0,58.95 0,117.9 0,176.85 0,4.97 -0.29,9.89 -2.05,14.62 -4.77,12.86 -17.1,21.24 -31.42,21.24 -76.68,0 -153.37,-0.02 -230.04,-0.03 -2.54,0 -5.07,0.06 -7.6,-0.03 -18.05,-0.64 -31.62,-14.17 -32.34,-32.2 -0.03,-0.92 -0.02,-1.84 -0.02,-2.76 0,-118.48 0.02,-236.95 -0.03,-355.43 0,-9.66 2.6,-18.14 9.55,-25.07 6.91,-6.88 15.25,-9.94 24.95,-9.93 56.53,0.06 113.07,0.03 169.6,0.03 22.11,0 44.22,-0.09 66.32,0.03 16.42,0.09 29.42,10.83 32.51,26.54 0.83,4.21 0.62,8.48 0.62,12.74 0,57.8 0,115.6 0,173.4 z"
         id="path2"
         style="fill:none" />
    </g>
  </g>
  <g
     id="g4"
     transform="translate(-89.757412,-64.132711)">
    <path
       class="cls-3"
       d="m 377.67,358.46 c -8.88,-0.56 -14.76,-3.75 -20.63,-6.9 -14.91,-7.98 -28.87,-17.64 -44.14,-25 -5.22,-2.52 -6.61,-7.88 -8.37,-12.67 -5.93,-16.1 -12.82,-31.7 -21.52,-46.52 -2.6,-4.43 -5.1,-7.13 -10.43,-4.44 -0.92,0.46 -2.15,0.7 -3.3,-0.16 0.06,-0.47 -0.06,-1.18 0.24,-1.49 6.52,-6.85 3.45,-13.17 -0.55,-19.89 -7.06,-11.84 -14.15,-23.62 -22.99,-34.25 -1.88,-2.26 -3.31,-4.09 -5.47,0.02 -10.72,20.46 -23.49,39.7 -35.57,59.35 -1.03,1.68 -3.74,3.31 -1.92,5.8 1.62,2.23 4.21,2.76 6.95,2.91 3.67,0.2 6.36,-1.89 9.21,-3.55 4.22,-2.44 8.46,-2.86 12.71,-0.41 3.01,1.73 3.75,3.93 0.84,6.64 -2.63,2.45 -5.72,4.15 -8.84,5.8 -2.21,1.17 -4,2.63 -5.02,4.99 -1.28,2.97 -2.71,6.46 -0.74,9.03 2.04,2.67 5.09,-0.22 7.68,-0.67 1.44,-0.25 2.8,-0.98 4.21,-1.47 6.2,-2.15 9.91,-5.87 11.35,-12.85 3.54,-17.12 7.22,-34.16 6.25,-51.92 12.62,4.69 19.07,20.16 13.31,31.64 -5.61,11.2 -9.69,22.94 -13.3,34.89 -0.67,2.22 -1.41,4.32 0.68,6.15 1.98,1.72 4.27,2.38 6.74,1.37 4.13,-1.68 8.22,-3.47 12.28,-5.33 4.58,-2.1 9.18,-4.02 14.29,-4.5 4.57,-0.43 7.36,1.7 9.34,5.54 1.56,3.02 0.96,4.9 -2.44,5.79 -4.67,1.23 -9.39,2.24 -13.88,4.17 -2.72,1.17 -4.14,2.78 -4.36,5.78 -0.41,5.56 -1,11.11 -1.63,16.66 -0.34,2.95 0.81,4.09 3.74,3.81 9.15,-0.88 18.54,0.46 27.26,-4.13 5.05,-2.66 20.3,3.83 22.7,8.91 1.02,2.15 -0.36,3.1 -1.79,4.02 -3.06,1.97 -6.56,2.49 -10.08,2.96 -11.71,1.55 -23.42,-0.29 -35.13,0.19 -8.19,0.33 -8.18,0.27 -9.31,8.57 -1.16,8.48 -2.37,16.94 -3.5,25.42 -0.57,4.31 -2.73,7.58 -6.03,10.32 -9.96,8.26 -20.95,14.8 -32.79,19.95 -1.53,0.66 -3.14,1.27 -4.77,1.54 -4.53,0.74 -7.96,-0.99 -10.26,-5 -2.22,-3.86 0.05,-6.54 2.62,-8.71 8.09,-6.82 16.87,-12.8 24.15,-20.62 6.48,-6.96 11.48,-14.53 13.6,-23.93 0.82,-3.65 -0.17,-4.73 -3.79,-4.26 -6.64,0.86 -13.3,1.63 -19.97,2.16 -3.83,0.3 -5.9,2.16 -7.53,5.54 -6.15,12.72 -11.1,26.01 -18.19,38.28 -0.93,1.61 -1.89,3.21 -2.93,4.75 -7.27,10.67 -17.24,12.23 -27.76,4.56 -7.66,-5.58 -12.89,-13.36 -18.83,-20.47 -3,-3.59 -5.87,-5.11 -10.83,-4.44 -13.37,1.81 -21.19,-4.49 -23.9,-18.15 -0.57,-2.89 0.5,-3.72 2.81,-2.33 14.79,8.87 28.46,3.74 42.36,-2.68 14.35,-6.63 28.94,-12.76 42.97,-20.07 6.21,-3.24 6.33,-4.51 1.52,-9.71 -5.95,-6.43 -9.45,-6.74 -17.09,-1.03 -5.36,4 -10.29,8.59 -15.76,12.42 -5.32,3.72 -11.13,3.43 -15.68,0.25 -2.21,-1.54 -2.85,-2.69 -0.16,-4.42 13.89,-8.95 26.47,-19.9 41.65,-26.87 4.12,-1.89 8.07,-10.35 7.32,-14.77 -0.48,-2.82 -2.77,-2.87 -4.7,-2.89 -8.27,-0.07 -15.14,3.15 -20.6,9.34 -11.09,12.56 -22.2,25.09 -36.71,33.97 -10.54,6.45 -22.05,10.06 -34.45,11.6 8.85,-7.57 17.76,-15.06 26.53,-22.71 16.58,-14.45 32.12,-29.9 46,-47.01 2.51,-3.1 2.65,-5.08 -0.22,-7.89 -7.04,-6.89 -13.86,-14 -20.71,-21.09 -3.9,-4.04 -7.27,-8.48 -9.27,-13.8 -0.37,-0.99 -0.82,-2.39 -0.4,-3.15 0.79,-1.43 2.31,-0.59 3.51,-0.24 10.41,3.09 18.82,9.58 27.11,16.2 3.92,3.13 7.61,6.56 11.24,10.02 2.03,1.94 3.4,2.21 5.31,-0.26 8.3,-10.81 15.81,-22.09 21.02,-34.75 0.46,-1.12 1.59,-2.35 0.34,-3.54 -0.95,-0.9 -2.1,-0.09 -3.16,0.1 -6.72,1.16 -12.5,4.69 -18.62,7.38 -5.81,2.56 -11.61,5.09 -18.13,4.99 -2.08,-0.03 -4.68,-0.29 -5.42,-2.13 -0.85,-2.1 1.9,-2.81 3.27,-3.81 10.07,-7.34 20.25,-14.53 30.32,-21.87 6.97,-5.08 12.88,-11.23 17.77,-18.36 2.53,-3.7 5.55,-7.04 9.02,-9.84 4.24,-3.43 8.94,-3.48 13.46,-0.5 4.42,2.92 5.04,6.76 2.89,11.64 -1.29,2.93 -3.92,6.46 -2.2,9.38 2.7,4.59 6.38,8.72 10.2,12.48 2.2,2.17 3,-0.98 3.79,-2.36 5.44,-9.6 8.8,-20.08 12.49,-30.4 2.63,-7.36 5.26,-14.7 8.66,-21.76 1.66,-3.45 3.14,-3.6 5.62,-0.92 2.42,2.6 4.62,5.32 6.46,8.37 3.65,6.07 5.21,11.55 -1.29,17.24 -4.22,3.69 -4.95,9.87 -7.49,14.83 -4.67,9.12 -9.64,18.05 -15.59,26.39 -1.75,2.45 -2.12,4.49 -0.27,7.03 2.74,3.76 5.36,7.61 7.83,11.55 2.21,3.53 4.13,4.02 7.13,0.62 5.22,-5.92 9.82,-12.24 12.56,-19.63 1.53,-4.11 3.62,-3.89 6.75,-2.3 4.81,2.45 8.77,5.78 10.64,10.92 1.27,3.48 1.07,6.63 -3.79,7.41 -9.08,1.46 -13.64,9.16 -19.77,14.69 -1.5,1.35 -0.66,2.73 0.28,3.94 14.11,18.27 27.58,37.5 46.72,50.68 19.41,13.37 26.36,34.23 38.3,53.93 z M 229.5,323.35 c 1.65,-5.12 3.04,-9.66 4.57,-14.14 1.23,-3.58 0.93,-5.28 -3.59,-4.12 -6.4,1.63 -12.3,4.17 -17.62,8.05 -6.78,4.94 -6.86,7.25 -0.24,12.7 2.86,2.35 5.74,4.41 7.4,8.04 4.44,9.69 4.6,9.62 15.31,7.91 0.37,-0.06 0.73,-0.11 1.1,-0.17 17.91,-2.86 17.78,-2.86 19.09,-20.95 0.3,-4.19 -1.15,-5.03 -4.97,-5.92 -6.36,-1.48 -11.04,-0.3 -14.86,5.05 -1.11,1.55 -2.65,3.14 -6.19,3.56 z m -54.6,65.42 c 4.73,0.49 8.29,-1.52 11.21,-4.5 5.88,-5.97 10.92,-12.62 14.82,-20.06 1.29,-2.45 2.45,-5.05 2.49,-7.9 0.06,-4.19 -2.84,-6.72 -6.27,-5.16 -15.22,6.92 -30.01,14.63 -43.5,24.64 -2.93,2.18 -2.2,3.65 0.34,5.45 6.36,4.52 13.32,7.28 20.91,7.53 z"
       id="path3" />
    <path
       class="cls-3"
       d="m 297.92,368.61 c 13.89,0.27 25.63,4.28 35.88,12.43 8.54,6.8 8.81,18.52 0.48,25.62 -6.56,5.6 -14.29,8.42 -22.9,9.09 -3.85,0.3 -6.22,-1.07 -8.01,-4.51 -4.19,-8.07 -7.12,-16.76 -12.01,-24.49 -1.59,-2.51 -3.06,-5.1 -4.74,-7.55 -5.4,-7.84 -4.85,-9.06 4.89,-10.18 2.39,-0.27 4.81,-0.32 6.4,-0.42 z"
       id="path4" />
  </g>
</svg>
